<svg preserveAspectRatio="none" width="100%" height="100%" overflow="visible" style="display: block;" viewBox="0 0 19 197" fill="none" xmlns="http://www.w3.org/2000/svg">
<path id="Union" opacity="0.4" fill-rule="evenodd" clip-rule="evenodd" d="M19 6.20234C19 9.98271 17.881 13.6785 15.784 16.8239C14.6029 18.5956 13.7256 20.5518 13.1882 22.6121L11.3786 29.5486C11.3058 29.8276 11.1746 30.0791 11 30.2913V164.763C11.1494 164.968 11.2584 165.206 11.3143 165.467L13.2916 174.694C13.7589 176.875 14.6688 178.936 15.965 180.751C17.9389 183.514 19 186.826 19 190.222V197H11H8H1.44243e-05V190.222C1.44243e-05 186.826 1.06113 183.514 3.03503 180.751C4.33121 178.936 5.24109 176.875 5.70835 174.694L7.68571 165.467C7.74157 165.206 7.85061 164.968 8 164.763V30.2913C7.82544 30.0791 7.69415 29.8276 7.62136 29.5486L5.81184 22.6121C5.27438 20.5518 4.39705 18.5956 3.21596 16.8239C1.11899 13.6785 0 9.98271 0 6.20234V0H8H11H19V6.20234Z" fill="var(--fill-0, #61B0EF)" fill-opacity="0.3"/>
</svg>
